# Wavefront OBJ file automatically generated by Tiled2Unity

# Vertices (Count = 390)
v -48 -72 0
v -72 -72 0
v -72 -48 0
v -48 -48 0
v -96 -72 0
v -96 -48 0
v -144 -72 0
v -168 -72 0
v -168 -48 0
v -144 -48 0
v -192 -72 0
v -192 -48 0
v -240 -72 0
v -264 -72 0
v -264 -48 0
v -240 -48 0
v -288 -72 0
v -288 -48 0
v -336 -72 0
v -360 -72 0
v -360 -48 0
v -336 -48 0
v -384 -72 0
v -384 -48 0
v -432 -72 0
v -456 -72 0
v -456 -48 0
v -432 -48 0
v -480 -72 0
v -480 -48 0
v -528 -72 0
v -552 -72 0
v -552 -48 0
v -528 -48 0
v -576 -72 0
v -576 -48 0
v -48 -96 0
v -72 -96 0
v -96 -96 0
v -144 -96 0
v -168 -96 0
v -192 -96 0
v -240 -96 0
v -264 -96 0
v -288 -96 0
v -336 -96 0
v -360 -96 0
v -384 -96 0
v -432 -96 0
v -456 -96 0
v -480 -96 0
v -528 -96 0
v -552 -96 0
v -576 -96 0
v -48 -120 0
v -72 -120 0
v -96 -120 0
v -144 -120 0
v -168 -120 0
v -192 -120 0
v -240 -120 0
v -264 -120 0
v -288 -120 0
v -336 -120 0
v -360 -120 0
v -384 -120 0
v -432 -120 0
v -456 -120 0
v -480 -120 0
v -528 -120 0
v -552 -120 0
v -576 -120 0
v -48 -144 0
v -72 -144 0
v -96 -144 0
v -144 -144 0
v -168 -144 0
v -192 -144 0
v -240 -144 0
v -264 -144 0
v -288 -144 0
v -336 -144 0
v -360 -144 0
v -384 -144 0
v -432 -144 0
v -456 -144 0
v -480 -144 0
v -528 -144 0
v -552 -144 0
v -576 -144 0
v -48 -168 0
v -72 -168 0
v -96 -168 0
v -144 -168 0
v -168 -168 0
v -192 -168 0
v -240 -168 0
v -264 -168 0
v -288 -168 0
v -336 -168 0
v -360 -168 0
v -384 -168 0
v -432 -168 0
v -456 -168 0
v -480 -168 0
v -528 -168 0
v -552 -168 0
v -576 -168 0
v -48 -192 0
v -72 -192 0
v -96 -192 0
v -144 -192 0
v -168 -192 0
v -192 -192 0
v -240 -192 0
v -264 -192 0
v -288 -192 0
v -336 -192 0
v -360 -192 0
v -384 -192 0
v -432 -192 0
v -456 -192 0
v -480 -192 0
v -528 -192 0
v -552 -192 0
v -576 -192 0
v -48 -216 0
v -72 -216 0
v -96 -216 0
v -144 -216 0
v -168 -216 0
v -192 -216 0
v -432 -216 0
v -456 -216 0
v -480 -216 0
v -528 -216 0
v -552 -216 0
v -576 -216 0
v -48 -240 0
v -72 -240 0
v -96 -240 0
v -144 -240 0
v -168 -240 0
v -192 -240 0
v -432 -240 0
v -456 -240 0
v -480 -240 0
v -528 -240 0
v -552 -240 0
v -576 -240 0
v -240 -264 0
v -264 -264 0
v -264 -240 0
v -240 -240 0
v -288 -264 0
v -288 -240 0
v -336 -264 0
v -360 -264 0
v -360 -240 0
v -336 -240 0
v -384 -264 0
v -384 -240 0
v -240 -288 0
v -264 -288 0
v -288 -288 0
v -336 -288 0
v -360 -288 0
v -384 -288 0
v -96 -312 0
v -120 -312 0
v -120 -288 0
v -96 -288 0
v -144 -312 0
v -144 -288 0
v -168 -312 0
v -168 -288 0
v -192 -312 0
v -192 -288 0
v -432 -312 0
v -456 -312 0
v -456 -288 0
v -432 -288 0
v -480 -312 0
v -480 -288 0
v -504 -312 0
v -504 -288 0
v -528 -312 0
v -528 -288 0
v -96 -336 0
v -120 -336 0
v -144 -336 0
v -168 -336 0
v -192 -336 0
v -432 -336 0
v -456 -336 0
v -480 -336 0
v -504 -336 0
v -528 -336 0
v -240 -360 0
v -264 -360 0
v -264 -336 0
v -240 -336 0
v -288 -360 0
v -288 -336 0
v -336 -360 0
v -360 -360 0
v -360 -336 0
v -336 -336 0
v -384 -360 0
v -384 -336 0
v -240 -384 0
v -264 -384 0
v -288 -384 0
v -312 -384 0
v -312 -360 0
v -336 -384 0
v -360 -384 0
v -384 -384 0
v -48 -408 0
v -72 -408 0
v -72 -384 0
v -48 -384 0
v -96 -408 0
v -96 -384 0
v -144 -408 0
v -168 -408 0
v -168 -384 0
v -144 -384 0
v -192 -408 0
v -192 -384 0
v -240 -408 0
v -264 -408 0
v -288 -408 0
v -312 -408 0
v -336 -408 0
v -360 -408 0
v -384 -408 0
v -432 -408 0
v -456 -408 0
v -456 -384 0
v -432 -384 0
v -480 -408 0
v -480 -384 0
v -528 -408 0
v -552 -408 0
v -552 -384 0
v -528 -384 0
v -576 -408 0
v -576 -384 0
v -48 -432 0
v -72 -432 0
v -96 -432 0
v -144 -432 0
v -168 -432 0
v -192 -432 0
v -240 -432 0
v -264 -432 0
v -288 -432 0
v -336 -432 0
v -360 -432 0
v -384 -432 0
v -432 -432 0
v -456 -432 0
v -480 -432 0
v -528 -432 0
v -552 -432 0
v -576 -432 0
v -48 -456 0
v -72 -456 0
v -96 -456 0
v -144 -456 0
v -168 -456 0
v -192 -456 0
v -240 -456 0
v -264 -456 0
v -288 -456 0
v -336 -456 0
v -360 -456 0
v -384 -456 0
v -432 -456 0
v -456 -456 0
v -480 -456 0
v -528 -456 0
v -552 -456 0
v -576 -456 0
v -48 -480 0
v -72 -480 0
v -96 -480 0
v -144 -480 0
v -168 -480 0
v -192 -480 0
v -240 -480 0
v -264 -480 0
v -288 -480 0
v -336 -480 0
v -360 -480 0
v -384 -480 0
v -432 -480 0
v -456 -480 0
v -480 -480 0
v -528 -480 0
v -552 -480 0
v -576 -480 0
v -48 -504 0
v -72 -504 0
v -96 -504 0
v -144 -504 0
v -168 -504 0
v -192 -504 0
v -240 -504 0
v -264 -504 0
v -288 -504 0
v -336 -504 0
v -360 -504 0
v -384 -504 0
v -432 -504 0
v -456 -504 0
v -480 -504 0
v -528 -504 0
v -552 -504 0
v -576 -504 0
v -48 -528 0
v -72 -528 0
v -96 -528 0
v -144 -528 0
v -168 -528 0
v -192 -528 0
v -432 -528 0
v -456 -528 0
v -480 -528 0
v -528 -528 0
v -552 -528 0
v -576 -528 0
v -48 -552 0
v -72 -552 0
v -96 -552 0
v -144 -552 0
v -168 -552 0
v -192 -552 0
v -432 -552 0
v -456 -552 0
v -480 -552 0
v -528 -552 0
v -552 -552 0
v -576 -552 0
v -48 -576 0
v -72 -576 0
v -96 -576 0
v -144 -576 0
v -168 -576 0
v -192 -576 0
v -264 -576 0
v -288 -576 0
v -288 -552 0
v -264 -552 0
v -312 -576 0
v -312 -552 0
v -336 -576 0
v -336 -552 0
v -360 -576 0
v -360 -552 0
v -432 -576 0
v -456 -576 0
v -480 -576 0
v -528 -576 0
v -552 -576 0
v -576 -576 0
v -264 -600 0
v -288 -600 0
v -336 -600 0
v -360 -600 0
v -264 -624 0
v -288 -624 0
v -336 -624 0
v -360 -624 0
v -312 -144 0
v -312 -120 0
v -312 -168 0
v 0 -336 0
v -24 -336 0
v -24 -312 0
v 0 -312 0
v -48 -336 0
v -48 -312 0
v -576 -336 0
v -600 -336 0
v -600 -312 0
v -576 -312 0
v -624 -336 0
v -624 -312 0

# Texture cooridinates (Count = 8)
vt 0.7500305 0.0001220703
vt 0.9999695 0.0001220703
vt 0.9999695 0.9998779
vt 0.7500305 0.9998779
vt 0.2500305 0.0001220703
vt 0.4999695 0.0001220703
vt 0.4999695 0.9998779
vt 0.2500305 0.9998779

# Normal
vn 0 0 -1

# Groups (Count = 2)

g mesh_0001
f 1/1/1 2/2/1 3/3/1 4/4/1
f 2/1/1 5/2/1 6/3/1 3/4/1
f 7/1/1 8/2/1 9/3/1 10/4/1
f 8/1/1 11/2/1 12/3/1 9/4/1
f 13/1/1 14/2/1 15/3/1 16/4/1
f 14/1/1 17/2/1 18/3/1 15/4/1
f 19/1/1 20/2/1 21/3/1 22/4/1
f 20/1/1 23/2/1 24/3/1 21/4/1
f 25/1/1 26/2/1 27/3/1 28/4/1
f 26/1/1 29/2/1 30/3/1 27/4/1
f 31/1/1 32/2/1 33/3/1 34/4/1
f 32/1/1 35/2/1 36/3/1 33/4/1
f 37/1/1 38/2/1 2/3/1 1/4/1
f 38/1/1 39/2/1 5/3/1 2/4/1
f 40/1/1 41/2/1 8/3/1 7/4/1
f 41/1/1 42/2/1 11/3/1 8/4/1
f 43/1/1 44/2/1 14/3/1 13/4/1
f 44/1/1 45/2/1 17/3/1 14/4/1
f 46/1/1 47/2/1 20/3/1 19/4/1
f 47/1/1 48/2/1 23/3/1 20/4/1
f 49/1/1 50/2/1 26/3/1 25/4/1
f 50/1/1 51/2/1 29/3/1 26/4/1
f 52/1/1 53/2/1 32/3/1 31/4/1
f 53/1/1 54/2/1 35/3/1 32/4/1
f 55/1/1 56/2/1 38/3/1 37/4/1
f 56/1/1 57/2/1 39/3/1 38/4/1
f 58/1/1 59/2/1 41/3/1 40/4/1
f 59/1/1 60/2/1 42/3/1 41/4/1
f 61/1/1 62/2/1 44/3/1 43/4/1
f 62/1/1 63/2/1 45/3/1 44/4/1
f 64/1/1 65/2/1 47/3/1 46/4/1
f 65/1/1 66/2/1 48/3/1 47/4/1
f 67/1/1 68/2/1 50/3/1 49/4/1
f 68/1/1 69/2/1 51/3/1 50/4/1
f 70/1/1 71/2/1 53/3/1 52/4/1
f 71/1/1 72/2/1 54/3/1 53/4/1
f 73/1/1 74/2/1 56/3/1 55/4/1
f 74/1/1 75/2/1 57/3/1 56/4/1
f 76/1/1 77/2/1 59/3/1 58/4/1
f 77/1/1 78/2/1 60/3/1 59/4/1
f 79/1/1 80/2/1 62/3/1 61/4/1
f 80/1/1 81/2/1 63/3/1 62/4/1
f 82/1/1 83/2/1 65/3/1 64/4/1
f 83/1/1 84/2/1 66/3/1 65/4/1
f 85/1/1 86/2/1 68/3/1 67/4/1
f 86/1/1 87/2/1 69/3/1 68/4/1
f 88/1/1 89/2/1 71/3/1 70/4/1
f 89/1/1 90/2/1 72/3/1 71/4/1
f 91/1/1 92/2/1 74/3/1 73/4/1
f 92/1/1 93/2/1 75/3/1 74/4/1
f 94/1/1 95/2/1 77/3/1 76/4/1
f 95/1/1 96/2/1 78/3/1 77/4/1
f 97/1/1 98/2/1 80/3/1 79/4/1
f 98/1/1 99/2/1 81/3/1 80/4/1
f 100/1/1 101/2/1 83/3/1 82/4/1
f 101/1/1 102/2/1 84/3/1 83/4/1
f 103/1/1 104/2/1 86/3/1 85/4/1
f 104/1/1 105/2/1 87/3/1 86/4/1
f 106/1/1 107/2/1 89/3/1 88/4/1
f 107/1/1 108/2/1 90/3/1 89/4/1
f 109/1/1 110/2/1 92/3/1 91/4/1
f 110/1/1 111/2/1 93/3/1 92/4/1
f 112/1/1 113/2/1 95/3/1 94/4/1
f 113/1/1 114/2/1 96/3/1 95/4/1
f 115/1/1 116/2/1 98/3/1 97/4/1
f 116/1/1 117/2/1 99/3/1 98/4/1
f 118/1/1 119/2/1 101/3/1 100/4/1
f 119/1/1 120/2/1 102/3/1 101/4/1
f 121/1/1 122/2/1 104/3/1 103/4/1
f 122/1/1 123/2/1 105/3/1 104/4/1
f 124/1/1 125/2/1 107/3/1 106/4/1
f 125/1/1 126/2/1 108/3/1 107/4/1
f 127/1/1 128/2/1 110/3/1 109/4/1
f 128/1/1 129/2/1 111/3/1 110/4/1
f 130/1/1 131/2/1 113/3/1 112/4/1
f 131/1/1 132/2/1 114/3/1 113/4/1
f 133/1/1 134/2/1 122/3/1 121/4/1
f 134/1/1 135/2/1 123/3/1 122/4/1
f 136/1/1 137/2/1 125/3/1 124/4/1
f 137/1/1 138/2/1 126/3/1 125/4/1
f 139/1/1 140/2/1 128/3/1 127/4/1
f 140/1/1 141/2/1 129/3/1 128/4/1
f 142/1/1 143/2/1 131/3/1 130/4/1
f 143/1/1 144/2/1 132/3/1 131/4/1
f 145/1/1 146/2/1 134/3/1 133/4/1
f 146/1/1 147/2/1 135/3/1 134/4/1
f 148/1/1 149/2/1 137/3/1 136/4/1
f 149/1/1 150/2/1 138/3/1 137/4/1
f 151/1/1 152/2/1 153/3/1 154/4/1
f 152/1/1 155/2/1 156/3/1 153/4/1
f 157/1/1 158/2/1 159/3/1 160/4/1
f 158/1/1 161/2/1 162/3/1 159/4/1
f 163/1/1 164/2/1 152/3/1 151/4/1
f 164/1/1 165/2/1 155/3/1 152/4/1
f 166/1/1 167/2/1 158/3/1 157/4/1
f 167/1/1 168/2/1 161/3/1 158/4/1
f 169/1/1 170/2/1 171/3/1 172/4/1
f 170/1/1 173/2/1 174/3/1 171/4/1
f 173/1/1 175/2/1 176/3/1 174/4/1
f 175/1/1 177/2/1 178/3/1 176/4/1
f 179/1/1 180/2/1 181/3/1 182/4/1
f 180/1/1 183/2/1 184/3/1 181/4/1
f 183/1/1 185/2/1 186/3/1 184/4/1
f 185/1/1 187/2/1 188/3/1 186/4/1
f 189/1/1 190/2/1 170/3/1 169/4/1
f 190/1/1 191/2/1 173/3/1 170/4/1
f 191/1/1 192/2/1 175/3/1 173/4/1
f 192/1/1 193/2/1 177/3/1 175/4/1
f 194/1/1 195/2/1 180/3/1 179/4/1
f 195/1/1 196/2/1 183/3/1 180/4/1
f 196/1/1 197/2/1 185/3/1 183/4/1
f 197/1/1 198/2/1 187/3/1 185/4/1
f 199/1/1 200/2/1 201/3/1 202/4/1
f 200/1/1 203/2/1 204/3/1 201/4/1
f 205/1/1 206/2/1 207/3/1 208/4/1
f 206/1/1 209/2/1 210/3/1 207/4/1
f 211/1/1 212/2/1 200/3/1 199/4/1
f 212/1/1 213/2/1 203/3/1 200/4/1
f 213/1/1 214/2/1 215/3/1 203/4/1
f 214/1/1 216/2/1 205/3/1 215/4/1
f 216/1/1 217/2/1 206/3/1 205/4/1
f 217/1/1 218/2/1 209/3/1 206/4/1
f 219/1/1 220/2/1 221/3/1 222/4/1
f 220/1/1 223/2/1 224/3/1 221/4/1
f 225/1/1 226/2/1 227/3/1 228/4/1
f 226/1/1 229/2/1 230/3/1 227/4/1
f 231/1/1 232/2/1 212/3/1 211/4/1
f 232/1/1 233/2/1 213/3/1 212/4/1
f 233/1/1 234/2/1 214/3/1 213/4/1
f 234/1/1 235/2/1 216/3/1 214/4/1
f 235/1/1 236/2/1 217/3/1 216/4/1
f 236/1/1 237/2/1 218/3/1 217/4/1
f 238/1/1 239/2/1 240/3/1 241/4/1
f 239/1/1 242/2/1 243/3/1 240/4/1
f 244/1/1 245/2/1 246/3/1 247/4/1
f 245/1/1 248/2/1 249/3/1 246/4/1
f 250/1/1 251/2/1 220/3/1 219/4/1
f 251/1/1 252/2/1 223/3/1 220/4/1
f 253/1/1 254/2/1 226/3/1 225/4/1
f 254/1/1 255/2/1 229/3/1 226/4/1
f 256/1/1 257/2/1 232/3/1 231/4/1
f 257/1/1 258/2/1 233/3/1 232/4/1
f 259/1/1 260/2/1 236/3/1 235/4/1
f 260/1/1 261/2/1 237/3/1 236/4/1
f 262/1/1 263/2/1 239/3/1 238/4/1
f 263/1/1 264/2/1 242/3/1 239/4/1
f 265/1/1 266/2/1 245/3/1 244/4/1
f 266/1/1 267/2/1 248/3/1 245/4/1
f 268/1/1 269/2/1 251/3/1 250/4/1
f 269/1/1 270/2/1 252/3/1 251/4/1
f 271/1/1 272/2/1 254/3/1 253/4/1
f 272/1/1 273/2/1 255/3/1 254/4/1
f 274/1/1 275/2/1 257/3/1 256/4/1
f 275/1/1 276/2/1 258/3/1 257/4/1
f 277/1/1 278/2/1 260/3/1 259/4/1
f 278/1/1 279/2/1 261/3/1 260/4/1
f 280/1/1 281/2/1 263/3/1 262/4/1
f 281/1/1 282/2/1 264/3/1 263/4/1
f 283/1/1 284/2/1 266/3/1 265/4/1
f 284/1/1 285/2/1 267/3/1 266/4/1
f 286/1/1 287/2/1 269/3/1 268/4/1
f 287/1/1 288/2/1 270/3/1 269/4/1
f 289/1/1 290/2/1 272/3/1 271/4/1
f 290/1/1 291/2/1 273/3/1 272/4/1
f 292/1/1 293/2/1 275/3/1 274/4/1
f 293/1/1 294/2/1 276/3/1 275/4/1
f 295/1/1 296/2/1 278/3/1 277/4/1
f 296/1/1 297/2/1 279/3/1 278/4/1
f 298/1/1 299/2/1 281/3/1 280/4/1
f 299/1/1 300/2/1 282/3/1 281/4/1
f 301/1/1 302/2/1 284/3/1 283/4/1
f 302/1/1 303/2/1 285/3/1 284/4/1
f 304/1/1 305/2/1 287/3/1 286/4/1
f 305/1/1 306/2/1 288/3/1 287/4/1
f 307/1/1 308/2/1 290/3/1 289/4/1
f 308/1/1 309/2/1 291/3/1 290/4/1
f 310/1/1 311/2/1 293/3/1 292/4/1
f 311/1/1 312/2/1 294/3/1 293/4/1
f 313/1/1 314/2/1 296/3/1 295/4/1
f 314/1/1 315/2/1 297/3/1 296/4/1
f 316/1/1 317/2/1 299/3/1 298/4/1
f 317/1/1 318/2/1 300/3/1 299/4/1
f 319/1/1 320/2/1 302/3/1 301/4/1
f 320/1/1 321/2/1 303/3/1 302/4/1
f 322/1/1 323/2/1 305/3/1 304/4/1
f 323/1/1 324/2/1 306/3/1 305/4/1
f 325/1/1 326/2/1 308/3/1 307/4/1
f 326/1/1 327/2/1 309/3/1 308/4/1
f 328/1/1 329/2/1 317/3/1 316/4/1
f 329/1/1 330/2/1 318/3/1 317/4/1
f 331/1/1 332/2/1 320/3/1 319/4/1
f 332/1/1 333/2/1 321/3/1 320/4/1
f 334/1/1 335/2/1 323/3/1 322/4/1
f 335/1/1 336/2/1 324/3/1 323/4/1
f 337/1/1 338/2/1 326/3/1 325/4/1
f 338/1/1 339/2/1 327/3/1 326/4/1
f 340/1/1 341/2/1 329/3/1 328/4/1
f 341/1/1 342/2/1 330/3/1 329/4/1
f 343/1/1 344/2/1 332/3/1 331/4/1
f 344/1/1 345/2/1 333/3/1 332/4/1
f 346/1/1 347/2/1 335/3/1 334/4/1
f 347/1/1 348/2/1 336/3/1 335/4/1
f 349/1/1 350/2/1 338/3/1 337/4/1
f 350/1/1 351/2/1 339/3/1 338/4/1
f 352/1/1 353/2/1 354/3/1 355/4/1
f 353/1/1 356/2/1 357/3/1 354/4/1
f 356/1/1 358/2/1 359/3/1 357/4/1
f 358/1/1 360/2/1 361/3/1 359/4/1
f 362/1/1 363/2/1 341/3/1 340/4/1
f 363/1/1 364/2/1 342/3/1 341/4/1
f 365/1/1 366/2/1 344/3/1 343/4/1
f 366/1/1 367/2/1 345/3/1 344/4/1
f 368/1/1 369/2/1 353/3/1 352/4/1
f 370/1/1 371/2/1 360/3/1 358/4/1
f 372/1/1 373/2/1 369/3/1 368/4/1
f 374/1/1 375/2/1 371/3/1 370/4/1

g mesh_0002
f 81/5/1 376/6/1 377/7/1 63/8/1
f 376/5/1 82/6/1 64/7/1 377/8/1
f 99/5/1 378/6/1 376/7/1 81/8/1
f 378/5/1 100/6/1 82/7/1 376/8/1
f 379/5/1 380/6/1 381/7/1 382/8/1
f 380/5/1 383/6/1 384/7/1 381/8/1
f 385/5/1 386/6/1 387/7/1 388/8/1
f 386/5/1 389/6/1 390/7/1 387/8/1

